<svg xmlns="http://www.w3.org/2000/svg" width="99" height="99" viewBox="0 0 1000 1000">
    <g>
        <path fill="#EA4335" d="M582.2,0c-24.6,0-48,9.6-65.4,27L297.6,246L384,332.4 l140.6-35.2L661,329.2l87.6-87.6c-23.4-28.4-21.4-70,4.6-96c26-26,67.6-28,96-4.6L968,22.4C951,8,929.4,0,907.2,0H582.2z"/>
        <path fill="#4285F4" d="M967.8,22.6L967.8,22.6L849.2,141.2 c23.4,19.2,32.2,51,21.801,79.4c-10.4,28.4-37.4,47.4-67.601,47.2c-21.6,0-41.6-9.2-55-26c0.2,0.2-0.2-0.2,0,0L613,378.8 l-96.4-46.6L408,389.8l-31.4,100.6l31.4,113L516.6,652l163-23.4l74.2,74.2L972.6,483.8c17.6-17.2,27.6-40.801,27.4-65.4V93 C1000,66,988.2,40.4,967.8,22.6L967.8,22.6z"/>
        <path fill="#FBBC05" d="M297.6,246l-270.2,270.2C9.8,533.6,0,557.4,0,582.2c-0.2,24.6,9.8,48.2,27.4,65.4 l157.8,157.801L364.4,626.2l-31.2-136L384,332.6L297.6,246z"/>
        <path fill="#34A853" d="M185.2,805.401l167.2,167.2C369.8,990,393.2,1000,417.8,1000c24.8-0.199,48.4-10,66-27.399 L753.8,702.4L679.6,628.2L524.399,673.2l-160.4-47.001L185.2,805.401z"/>
        <path fill="#FFFFFF" d="M717.4,451.4H524.4v82.8h111c-10.4,52.6-53.6,82.8-111,82.8C454.4,614.6,399.6,556,402,486 C404.2,419.4,457.8,366,524.4,363.6c28,0,55,10,76.2,28.2l60.2-62.4C623.6,295,575,276,524.4,275.8 C409.6,275.8,317.4,371.2,317.4,490c0,118.8,92.201,214.2,207.001,214.2C628,704.2,722,626.2,722,490 C721.8,477.2,720.2,464.2,717.4,451.4L717.4,451.4z"/>
    </g>
    <g>
        <path fill="#FF0000" d="M699.499,803.549h290.055c5.764,0,10.446,4.673,10.446,10.447v104.477c0,5.764-4.683,10.446-10.446,10.446 H699.499c-5.765,0-10.447-4.683-10.447-10.446V813.996C689.052,808.222,693.735,803.549,699.499,803.549z"/>
        <g>
            <path fill="#FFFFFF" d="M735.884,832.056h34.993c8.632,0,15.529,2.508,20.681,7.527c4.664,4.531,7.021,10.03,7.021,16.497 c0,6.48-2.306,11.948-6.888,16.396c-5.162,5.021-12.099,7.529-20.793,7.529h-12.854v20.264h-22.141v-68.214H735.884z M758.023,848.664v14.732h9.201c2.573,0,4.592-0.724,6.042-2.192c1.469-1.459,2.201-3.173,2.201-5.124 c0-2.081-0.691-3.843-2.08-5.272c-1.407-1.43-3.446-2.144-6.163-2.144H758.023z"/>
            <path fill="#FFFFFF" d="M872.211,900.27h-23.914l-11.08-22.141h-7.429v22.141H807.75v-68.214h34.995 c9.121,0,16.344,2.335,21.63,6.999c4.735,4.162,7.104,9.222,7.104,15.14c0,4.386-1.411,8.479-4.217,12.273 c-2.825,3.785-6.721,6.438-11.65,7.979L872.211,900.27z M829.788,848.664v12.856h9.306c2.57,0,4.591-0.655,6.061-1.93 c1.469-1.275,2.204-2.784,2.204-4.521c0-1.642-0.735-3.141-2.204-4.447c-1.47-1.306-3.49-1.97-6.061-1.97h-9.306V848.664z"/>
            <path fill="#FFFFFF" d="M953.18,865.283c0,12.744-3.837,22.335-11.487,28.732c-6.489,5.438-14.916,8.142-25.283,8.142 c-10.528,0-18.996-2.683-25.404-8.049c-7.653-6.408-11.498-16.021-11.498-28.834c0-12.038,3.785-21.119,11.386-27.18 c6.489-5.224,14.988-7.835,25.497-7.835c10.447,0,18.884,2.59,25.291,7.732C949.343,844.136,953.18,853.236,953.18,865.283z M916.409,885.537c4.307,0,7.592-1.969,9.814-5.949c2.012-3.549,3.021-8.314,3.021-14.305c0-5.162-0.969-9.354-2.92-12.639 c-2.306-3.837-5.609-5.755-9.916-5.755c-4.325,0-7.632,1.918-9.938,5.755c-2.021,3.337-3.02,7.549-3.02,12.639 c0,6.061,0.979,10.827,2.919,14.305C908.595,883.568,911.942,885.537,916.409,885.537z"/>
        </g>
    </g>
</svg>
